<?xml version="1.0" encoding="UTF-8" standalone="no"?>
<!-- Created with Inkscape (http://www.inkscape.org/) -->

<svg
   width="38.233482mm"
   height="11.857924mm"
   viewBox="0 0 38.233482 11.857924"
   version="1.1"
   id="svg1"
   xml:space="preserve"
   inkscape:version="1.4.3 (0d15f75042, 2025-12-25)"
   sodipodi:docname="icon.svg"
   inkscape:export-filename="assets/logo.svg"
   inkscape:export-xdpi="96"
   inkscape:export-ydpi="96"
   xmlns:inkscape="http://www.inkscape.org/namespaces/inkscape"
   xmlns:sodipodi="http://sodipodi.sourceforge.net/DTD/sodipodi-0.dtd"
   xmlns="http://www.w3.org/2000/svg"
   xmlns:svg="http://www.w3.org/2000/svg"><sodipodi:namedview
     id="namedview1"
     pagecolor="#ffffff"
     bordercolor="#000000"
     borderopacity="0.25"
     inkscape:showpageshadow="2"
     inkscape:pageopacity="0.0"
     inkscape:pagecheckerboard="0"
     inkscape:deskcolor="#d1d1d1"
     inkscape:document-units="mm"
     inkscape:zoom="5.4636982"
     inkscape:cx="1109.4134"
     inkscape:cy="450.70206"
     inkscape:window-width="1920"
     inkscape:window-height="1005"
     inkscape:window-x="0"
     inkscape:window-y="38"
     inkscape:window-maximized="1"
     inkscape:current-layer="layer1"><inkscape:page
       x="0"
       y="0"
       width="38.233482"
       height="11.857924"
       id="page23"
       margin="0"
       bleed="0" /></sodipodi:namedview><defs
     id="defs1" /><g
     inkscape:label="Layer 1"
     inkscape:groupmode="layer"
     id="layer1"
     transform="translate(-276.62556,-110.94488)"><g
       id="g35-7-9"
       transform="translate(180.71753,80.014009)"><path
         style="fill:#3d3846;stroke-width:0.999998"
         d="m 102.48544,41.850299 c -0.47321,-0.171837 -1.22913,-0.466374 -1.67981,-0.654527 -0.45068,-0.188153 -1.012554,-0.416005 -1.248604,-0.506338 -0.23605,-0.09033 -0.604696,-0.281603 -0.819213,-0.425046 -0.49628,-0.331848 -0.622746,-0.671961 -0.575222,-1.546981 0.03438,-0.632964 0.06995,-0.718644 0.592828,-1.427981 0.05553,-0.07532 0.03209,-0.190497 -0.07598,-0.37344 -0.195442,-0.330857 -0.271956,-1.390369 -0.131207,-1.816845 0.192537,-0.583392 0.54454,-0.774928 2.845608,-1.548388 1.16373,-0.391166 2.38252,-0.804719 2.70842,-0.919007 0.70824,-0.248373 1.12683,-0.259507 1.97032,-0.05241 0.34808,0.08546 0.92786,0.218374 1.28841,0.295358 0.65779,0.140452 1.42484,0.309421 2.59487,0.57161 0.79905,0.179057 1.01058,0.376702 1.01058,0.944253 0,0.306862 -0.0449,0.444313 -0.19866,0.607963 -0.10925,0.116301 -0.241,0.211456 -0.29277,0.211456 -0.0548,0 0.007,0.211773 0.14914,0.506874 0.31769,0.661904 0.34206,1.402685 0.0638,1.940209 l -0.18507,0.357561 0.22744,0.237392 c 0.19028,0.198617 0.22814,0.31058 0.23175,0.685465 0.008,0.784222 0.0903,0.738823 -4.25544,2.335069 -2.89375,1.062911 -2.88752,1.062059 -4.22124,0.577752 z m 2.57091,-0.33999 c 0.5014,-0.185335 1.42786,-0.521777 2.05881,-0.74765 3.10048,-1.109927 3.56449,-1.339621 3.56449,-1.764504 0,-0.256543 -0.23467,-0.652348 -0.41467,-0.699419 -0.0772,-0.0202 -1.43575,0.398593 -3.01894,0.930639 -2.20563,0.741221 -2.95451,1.02753 -3.20355,1.22477 -0.463,0.366707 -0.70273,0.187779 -0.27702,-0.20676 l 0.21479,-0.199054 -0.25524,-0.145286 c -0.14038,-0.07991 -0.25547,-0.187433 -0.25576,-0.238947 -9.3e-4,-0.174638 0.20316,-0.170413 0.52436,0.01085 l 0.32003,0.180603 0.45842,-0.147395 c 2.19983,-0.707298 5.2853,-1.798801 5.41393,-1.915205 0.0875,-0.0792 0.21759,-0.320074 0.28908,-0.535283 0.1147,-0.345352 0.11649,-0.449617 0.0152,-0.888082 -0.11705,-0.506619 -0.31497,-0.892359 -0.49293,-0.960647 -0.0545,-0.02093 -0.79909,0.162543 -1.65456,0.407712 -3.98369,1.141694 -4.01727,1.152692 -4.36811,1.430565 -0.3289,0.260489 -0.50593,0.280387 -0.50593,0.05687 0,-0.05976 0.0985,-0.173205 0.21893,-0.252101 l 0.21893,-0.143447 -0.28039,-0.229648 c -0.20921,-0.171352 -0.25686,-0.25342 -0.1877,-0.323296 0.0694,-0.07014 0.18255,-0.04668 0.45068,0.09344 0.1969,0.102898 0.39209,0.17749 0.43375,0.16576 0.0417,-0.01173 0.2629,-0.07119 0.49165,-0.132125 0.22875,-0.06094 1.00589,-0.28307 1.72698,-0.493626 0.72109,-0.210556 1.88064,-0.546575 2.57679,-0.746708 0.69615,-0.200134 1.33223,-0.424061 1.4135,-0.497615 0.19878,-0.179889 0.18682,-0.539171 -0.0243,-0.730686 -0.0947,-0.08585 -0.38042,-0.200187 -0.63505,-0.254074 -0.25463,-0.05389 -0.79483,-0.169439 -1.20045,-0.256782 -0.40561,-0.08734 -1.01402,-0.21795 -1.35204,-0.290234 -0.33801,-0.07228 -0.85424,-0.189431 -1.14718,-0.260326 -1.17371,-0.284047 -1.10183,-0.29615 -3.932,0.662081 -1.41897,0.480433 -2.677511,0.923965 -2.796754,0.985628 -0.119242,0.06166 -0.313381,0.226889 -0.43142,0.36717 -0.188268,0.223744 -0.21445,0.327218 -0.213268,0.842849 0.0011,0.456915 0.0421,0.658684 0.18437,0.906177 l 0.183021,0.318386 2.253401,0.683523 c 1.23938,0.375939 2.34475,0.684371 2.45639,0.685405 0.19363,0.0018 1.35954,-0.356121 4.05801,-1.245738 0.76065,-0.250766 1.30753,-0.479291 1.43481,-0.599571 0.26352,-0.249013 0.48563,-0.161834 0.31401,0.123253 -0.0982,0.163194 -0.0903,0.196045 0.0744,0.307774 0.21138,0.143409 0.24532,0.350917 0.0574,0.350917 -0.0698,0 -0.23349,-0.05508 -0.36368,-0.122406 l -0.23671,-0.122406 -1.66437,0.540809 c -0.91541,0.297446 -2.04495,0.665957 -2.51008,0.818913 -0.92561,0.304382 -1.30228,0.337785 -1.83504,0.162738 -0.19311,-0.06345 -0.68298,-0.215718 -1.08859,-0.338369 -0.40561,-0.122652 -1.01265,-0.311437 -1.34896,-0.419522 -0.33631,-0.108085 -0.82973,-0.253073 -1.096484,-0.322196 l -0.485007,-0.125679 -0.231294,0.221594 c -0.348295,0.333687 -0.484718,0.693015 -0.484374,1.275806 4.31e-4,0.732325 0.164097,0.968478 0.916657,1.322636 1.542332,0.725829 3.982422,1.612875 4.439982,1.614066 0.17462,4.54e-4 0.72773,-0.150811 1.22913,-0.336145 z"
         id="path24-2-59-4" /><g
         id="g34-2-7"><path
           d="m 103.98015,40.048302 -5.464784,-1.639693 c -0.0309,0.148215 -0.0451,0.313127 -0.045,0.501261 4.3e-4,0.732325 0.16418,0.968242 0.91674,1.3224 1.542334,0.725829 3.982484,1.612664 4.440044,1.613855 0.17462,4.54e-4 0.72747,-0.150563 1.22887,-0.335897 0.5014,-0.185335 1.42784,-0.521885 2.05879,-0.747758 3.10048,-1.109927 3.56464,-1.33935 3.56464,-1.764233 0,-0.256543 -0.23445,-0.652628 -0.41445,-0.699699 -0.0772,-0.0202 -1.43574,0.398647 -3.01893,0.930693 -2.20563,0.741221 -2.9549,1.027491 -3.20394,1.224731 -0.463,0.366707 -0.7027,0.187833 -0.27699,-0.206706 z"
           style="fill:#f66151;stroke-width:0.999998"
           id="path34-28-8" /><path
           d="m 98.816126,35.380887 c -0.0138,0.104797 -0.0175,0.23909 -0.0171,0.429431 0.001,0.456915 0.0422,0.658395 0.18448,0.905888 l 0.18293,0.318326 2.253614,0.68368 c 1.23937,0.375939 2.34454,0.684712 2.45618,0.685746 0.19363,0.0018 1.35969,-0.356302 4.05816,-1.245919 0.76065,-0.250766 1.30725,-0.479167 1.43453,-0.599447 0.26352,-0.249013 0.48582,-0.162097 0.3142,0.12299 -0.0982,0.163194 -0.0903,0.196263 0.0744,0.307992 0.21138,0.143409 0.24528,0.350883 0.0574,0.350883 -0.0698,0 -0.23361,-0.05515 -0.3638,-0.122473 l -0.23668,-0.122473 -1.66398,0.541052 c -0.91541,0.297446 -2.04531,0.665599 -2.51044,0.818555 -0.92561,0.304382 -1.30227,0.337827 -1.83503,0.16278 -0.19311,-0.06345 -0.6827,-0.215829 -1.08831,-0.33848 -0.40561,-0.122652 -1.01295,-0.311011 -1.34927,-0.419096 -0.33631,-0.108085 -0.829314,-0.253338 -1.096064,-0.322461 l -0.48524,-0.125574 -0.23151,0.221692 c -0.23586,0.225967 -0.37439,0.463714 -0.43925,0.77463 l 5.464784,1.639693 -0.25528,-0.145211 c -0.14038,-0.07991 -0.25551,-0.187748 -0.2558,-0.239262 -9.3e-4,-0.174638 0.20332,-0.170411 0.52452,0.01085 l 0.31988,0.180868 0.45837,-0.147278 c 2.19983,-0.707298 5.28551,-1.799241 5.41414,-1.915645 0.0875,-0.0792 0.21738,-0.319642 0.28887,-0.534851 0.1147,-0.345352 0.11627,-0.449853 0.015,-0.888318 -0.11705,-0.506619 -0.31451,-0.892377 -0.49247,-0.960665 -0.0545,-0.02093 -0.79921,0.162558 -1.65468,0.407727 -3.98369,1.141694 -4.01737,1.152531 -4.36821,1.430404 -0.3289,0.260489 -0.50591,0.280361 -0.50591,0.05684 0,-0.05976 0.0987,-0.172769 0.21911,-0.251665 l 0.21859,-0.14366 z"
           style="fill:#f6d32d;stroke-width:0.999998"
           id="path33-97-4" /><path
           d="m 98.816126,35.380887 5.090134,1.527555 -0.28009,-0.229443 c -0.20921,-0.171352 -0.25674,-0.253619 -0.18758,-0.323495 0.0694,-0.07014 0.18248,-0.04659 0.45061,0.09353 0.1969,0.102898 0.39191,0.177612 0.43357,0.165882 0.0417,-0.01173 0.26269,-0.07136 0.49144,-0.132292 0.22875,-0.06094 1.00594,-0.282954 1.72703,-0.49351 0.72109,-0.210556 1.88095,-0.546591 2.5771,-0.746724 0.69615,-0.200134 1.33208,-0.42409 1.41335,-0.497644 0.19878,-0.179889 0.18683,-0.53919 -0.0243,-0.730705 -0.0947,-0.08585 -0.38047,-0.200361 -0.6351,-0.254248 -0.25463,-0.05389 -0.79482,-0.169489 -1.20044,-0.256832 -0.40561,-0.08734 -1.01384,-0.217621 -1.35186,-0.289905 -0.33801,-0.07228 -0.85427,-0.189554 -1.14721,-0.260449 -1.17371,-0.284047 -1.10189,-0.296256 -3.93206,0.661975 -1.41897,0.480433 -2.677494,0.923807 -2.796734,0.98547 -0.11924,0.06166 -0.31346,0.227138 -0.4315,0.367419 -0.11877,0.141151 -0.17279,0.234314 -0.19637,0.413412 z"
           style="fill:#62a0ea;stroke-width:0.999998"
           id="path32-3-5" /></g></g><text
       xml:space="preserve"
       style="font-style:normal;font-variant:normal;font-weight:600;font-stretch:condensed;font-size:10.5833px;line-height:1;font-family:'CMU Sans Serif Demi Condensed';-inkscape-font-specification:'CMU Sans Serif Demi Condensed,  Semi-Bold Condensed';text-align:justify;letter-spacing:-0.341312px;word-spacing:0.0132292px;writing-mode:lr-tb;direction:ltr;text-anchor:start;fill:#62a0ea;stroke:#3d3846;stroke-width:0.2;stroke-linecap:round;stroke-linejoin:round;stroke-dasharray:none"
       x="293.55475"
       y="120.53023"
       id="text24-6-0"><tspan
         sodipodi:role="line"
         id="tspan24-1-3"
         x="293.55475"
         y="120.53023"
         style="fill:#62a0ea;stroke:#3d3846;stroke-width:0.2;stroke-dasharray:none">Quilt</tspan></text></g></svg>
