<?xml version="1.0" encoding="UTF-8" standalone="no"?>
<!-- Created with Inkscape (http://www.inkscape.org/) -->

<svg
   width="63.048115mm"
   height="15.685362mm"
   viewBox="0 0 63.048114 15.685362"
   version="1.1"
   id="svg1"
   xml:space="preserve"
   inkscape:version="1.4.3 (0d15f75042, 2025-12-25)"
   sodipodi:docname="icon.svg"
   inkscape:export-filename="assets/sub-logo.svg"
   inkscape:export-xdpi="96"
   inkscape:export-ydpi="96"
   xmlns:inkscape="http://www.inkscape.org/namespaces/inkscape"
   xmlns:sodipodi="http://sodipodi.sourceforge.net/DTD/sodipodi-0.dtd"
   xmlns="http://www.w3.org/2000/svg"
   xmlns:svg="http://www.w3.org/2000/svg"><sodipodi:namedview
     id="namedview1"
     pagecolor="#ffffff"
     bordercolor="#000000"
     borderopacity="0.25"
     inkscape:showpageshadow="2"
     inkscape:pageopacity="0.0"
     inkscape:pagecheckerboard="0"
     inkscape:deskcolor="#d1d1d1"
     inkscape:document-units="mm"
     inkscape:zoom="1.6479734"
     inkscape:cx="1392.3161"
     inkscape:cy="435.38323"
     inkscape:window-width="1920"
     inkscape:window-height="1005"
     inkscape:window-x="0"
     inkscape:window-y="38"
     inkscape:window-maximized="1"
     inkscape:current-layer="layer1"><inkscape:page
       x="0"
       y="0"
       width="63.048115"
       height="15.685362"
       id="page1"
       inkscape:export-filename="assets/sub-logo.svg"
       inkscape:export-xdpi="96"
       inkscape:export-ydpi="96"
       margin="0"
       bleed="0" /></sodipodi:namedview><defs
     id="defs1" /><g
     inkscape:label="Layer 1"
     inkscape:groupmode="layer"
     id="layer1"
     transform="translate(-323.90631,-107.68785)"><path
       d="m 328.32565,116.06014 h 0.31221 l 1.56104,3.75709 h -0.39159 l -0.48683,-1.17475 h -1.68804 l -0.48154,1.17475 h -0.39688 z m 0.91016,2.2913 -0.7567,-1.85738 -0.7673,1.85738 z m 6.04574,1.46579 h -0.35984 v -1.53988 q 0,-0.48154 -0.15346,-0.70908 -0.15345,-0.22754 -0.45508,-0.22754 -0.31221,0 -0.56092,0.22225 -0.24341,0.22225 -0.34395,0.5715 v 1.68275 h -0.35984 v -1.53988 q 0,-0.48683 -0.14816,-0.70908 -0.14817,-0.22754 -0.45509,-0.22754 -0.30692,0 -0.55562,0.21696 -0.24871,0.21696 -0.34925,0.5715 v 1.68804 h -0.35984 v -2.75696 h 0.32809 v 0.62442 q 0.17462,-0.32279 0.4445,-0.49742 0.27516,-0.17462 0.60854,-0.17462 0.34396,0 0.55562,0.19579 0.21167,0.19579 0.2593,0.51329 0.1905,-0.34925 0.45508,-0.52917 0.26987,-0.17991 0.60854,-0.17991 0.23283,0 0.39158,0.0847 0.16405,0.0847 0.2593,0.24342 0.10054,0.15346 0.14287,0.37571 0.0476,0.21696 0.0476,0.48683 z m 0.39423,-1.13771 v -1.61925 h 0.35983 v 1.55575 q 0,0.47096 0.15875,0.70379 0.16405,0.23284 0.48155,0.23284 0.21166,0 0.40745,-0.09 0.20109,-0.0952 0.35455,-0.26459 0.15346,-0.17462 0.23283,-0.40216 v -1.73567 h 0.35983 v 2.32304 q 0,0.0741 0.0317,0.11113 0.0317,0.0318 0.0953,0.037 v 0.28575 q -0.0635,0.005 -0.10054,0.005 -0.037,0.005 -0.0688,0.005 -0.10583,-0.0106 -0.18521,-0.0847 -0.0741,-0.0741 -0.0794,-0.17992 l -0.0106,-0.37042 q -0.17991,0.3175 -0.49212,0.49742 -0.30692,0.17992 -0.66675,0.17992 -0.43392,0 -0.65617,-0.30163 -0.22225,-0.30162 -0.22225,-0.889 z m 2.84427,-2.72521 h 0.35984 v 3.2385 q 0,0.20638 0.0741,0.26988 0.0741,0.0635 0.17992,0.0635 0.0952,0 0.1905,-0.0212 0.0953,-0.0212 0.16404,-0.0423 l 0.0635,0.29104 q -0.10054,0.0423 -0.24871,0.0688 -0.14288,0.0265 -0.24871,0.0265 -0.24342,0 -0.39158,-0.14287 -0.14288,-0.14288 -0.14288,-0.39159 z m 2.40506,3.73063 q -0.0423,0.0159 -0.13229,0.0582 -0.09,0.0423 -0.21696,0.0741 -0.127,0.0318 -0.27516,0.0318 -0.15346,0 -0.29104,-0.0582 -0.1323,-0.0582 -0.21167,-0.17462 -0.0794,-0.12171 -0.0794,-0.29634 v -1.97379 h -0.381 v -0.28575 h 0.381 v -0.93133 h 0.35984 v 0.93133 h 0.635 v 0.28575 h -0.635 v 1.87325 q 0.0106,0.14817 0.10583,0.22225 0.10054,0.0741 0.22754,0.0741 0.14817,0 0.26988,-0.0476 0.12171,-0.0529 0.14816,-0.0741 z m 0.10848,0.13229 v -2.75696 h 0.35983 v 2.75696 z m 0,-3.33375 v -0.52917 h 0.35983 v 0.52917 z m 1.71715,3.38667 q -0.33867,0 -0.62971,-0.11113 -0.29104,-0.11112 -0.50271,-0.33867 l 0.14817,-0.254 q 0.23283,0.21696 0.46567,0.31751 0.23812,0.0952 0.5027,0.0952 0.3228,0 0.52388,-0.127 0.20108,-0.1323 0.20108,-0.37571 0,-0.16405 -0.10054,-0.24871 -0.0953,-0.09 -0.28046,-0.14288 -0.17991,-0.0582 -0.43391,-0.12171 -0.28575,-0.0794 -0.48155,-0.16404 -0.1905,-0.09 -0.29104,-0.22225 -0.0953,-0.13758 -0.0953,-0.35454 0,-0.26987 0.13229,-0.4445 0.13759,-0.17992 0.37042,-0.26987 0.23813,-0.0953 0.52917,-0.0953 0.3175,0 0.56091,0.10054 0.24342,0.10054 0.39688,0.28046 l -0.17463,0.24341 q -0.14816,-0.16933 -0.35454,-0.24871 -0.20108,-0.0847 -0.44979,-0.0847 -0.16933,0 -0.32279,0.0476 -0.15346,0.0423 -0.254,0.14817 -0.0952,0.10054 -0.0952,0.28046 0,0.14816 0.0741,0.23283 0.0741,0.0794 0.22225,0.13758 0.14817,0.0529 0.36513,0.11642 0.31221,0.0847 0.54504,0.17463 0.23283,0.0847 0.35983,0.22225 0.127,0.13758 0.127,0.38629 0,0.38629 -0.29104,0.60325 -0.29104,0.21696 -0.76729,0.21696 z m 2.5056,0 q -0.30162,0 -0.55562,-0.11113 -0.24871,-0.11641 -0.43921,-0.3175 -0.18521,-0.20108 -0.29104,-0.46037 -0.10054,-0.2593 -0.10054,-0.55034 0,-0.39158 0.17462,-0.71437 0.17463,-0.32279 0.48684,-0.51329 0.3122,-0.1905 0.71966,-0.1905 0.38629,0 0.68263,0.17991 0.29633,0.17463 0.43921,0.47625 l -0.34925,0.11113 q -0.11642,-0.21167 -0.32809,-0.32809 -0.20637,-0.1217 -0.46037,-0.1217 -0.27517,0 -0.50271,0.14287 -0.22754,0.14288 -0.36513,0.39158 -0.13229,0.24871 -0.13229,0.56621 0,0.31221 0.13759,0.56621 0.13758,0.254 0.36512,0.40746 0.22754,0.14817 0.50271,0.14817 0.17992,0 0.34396,-0.0635 0.16933,-0.0635 0.29104,-0.16934 0.127,-0.11112 0.16933,-0.23812 l 0.35454,0.10583 q -0.0741,0.19579 -0.2487,0.35454 -0.16934,0.15346 -0.40217,0.24342 -0.22754,0.0847 -0.49213,0.0847 z m 1.14565,-0.84667 q 0,-0.25929 0.14817,-0.4445 0.14816,-0.1905 0.40746,-0.29104 0.26458,-0.10584 0.60854,-0.10584 0.20108,0 0.41804,0.0317 0.21696,0.0318 0.38629,0.0953 v -0.23283 q 0,-0.34925 -0.20637,-0.55562 -0.20638,-0.20638 -0.5715,-0.20638 -0.22225,0 -0.43921,0.0847 -0.21167,0.0794 -0.4445,0.23812 l -0.13759,-0.254 q 0.26988,-0.18521 0.52917,-0.27516 0.25929,-0.0953 0.52917,-0.0953 0.508,0 0.80433,0.29104 0.29634,0.29104 0.29634,0.80433 v 1.27529 q 0,0.0741 0.0318,0.11113 0.0317,0.0318 0.10054,0.037 v 0.28575 q -0.0582,0.005 -0.10054,0.0106 -0.0423,0.005 -0.0635,0 -0.1323,-0.005 -0.20109,-0.0847 -0.0688,-0.0794 -0.0741,-0.16934 l -0.005,-0.20108 q -0.18521,0.23813 -0.48155,0.37042 -0.29633,0.127 -0.60325,0.127 -0.26458,0 -0.48154,-0.11113 -0.21166,-0.11641 -0.33337,-0.30691 -0.11642,-0.1958 -0.11642,-0.42863 z m 1.84679,0.21167 q 0.0582,-0.0741 0.09,-0.14288 0.0318,-0.0688 0.0318,-0.12171 v -0.40216 q -0.17991,-0.0688 -0.37571,-0.10584 -0.1905,-0.037 -0.38629,-0.037 -0.38629,0 -0.62442,0.15346 -0.23812,0.15346 -0.23812,0.41804 0,0.15346 0.0794,0.29104 0.0794,0.13229 0.23284,0.22225 0.15346,0.0847 0.35983,0.0847 0.25929,0 0.48154,-0.10054 0.22754,-0.10054 0.34925,-0.25929 z m 0.93398,-3.28084 h 0.35984 v 3.2385 q 0,0.20638 0.0741,0.26988 0.0741,0.0635 0.17992,0.0635 0.0952,0 0.1905,-0.0212 0.0953,-0.0212 0.16404,-0.0423 l 0.0635,0.29104 q -0.10054,0.0423 -0.24871,0.0688 -0.14287,0.0265 -0.24871,0.0265 -0.24341,0 -0.39158,-0.14287 -0.14288,-0.14288 -0.14288,-0.39159 z m 2.27277,3.91584 q -0.29633,0 -0.55033,-0.11113 -0.254,-0.11641 -0.43921,-0.31221 -0.18521,-0.20108 -0.29104,-0.46037 -0.10054,-0.25929 -0.10054,-0.55563 0,-0.38629 0.17462,-0.70908 0.17992,-0.32279 0.49213,-0.51329 0.31221,-0.19579 0.70908,-0.19579 0.40746,0 0.70909,0.19579 0.30691,0.19579 0.48154,0.51858 0.17462,0.3175 0.17462,0.6985 0,0.0423 0,0.0847 0,0.037 -0.005,0.0582 h -2.36008 q 0.0264,0.29633 0.16404,0.52916 0.14287,0.22754 0.36512,0.36513 0.22754,0.13229 0.49213,0.13229 0.26987,0 0.508,-0.13758 0.24342,-0.13759 0.33867,-0.35984 l 0.3122,0.0847 q -0.0847,0.19579 -0.25929,0.35454 -0.17462,0.15875 -0.41275,0.24871 -0.23283,0.0847 -0.50271,0.0847 z m -1.016,-1.56105 h 2.0373 q -0.0212,-0.30162 -0.16405,-0.52916 -0.13758,-0.22754 -0.36512,-0.35454 -0.22225,-0.1323 -0.49213,-0.1323 -0.26987,0 -0.49212,0.1323 -0.22225,0.127 -0.36513,0.35983 -0.13758,0.22754 -0.15875,0.52387 z m 4.96094,1.56105 q -0.32279,0 -0.59796,-0.16404 -0.27517,-0.16934 -0.42862,-0.42334 v 0.53446 h -0.3228 v -3.86292 h 0.35984 v 1.68275 q 0.18521,-0.28046 0.4445,-0.44979 0.25929,-0.17462 0.60325,-0.17462 0.29104,0 0.51858,0.1217 0.23284,0.12171 0.39688,0.32809 0.16404,0.20108 0.24871,0.46037 0.0847,0.254 0.0847,0.52388 0,0.29104 -0.10054,0.54504 -0.0952,0.254 -0.27517,0.45508 -0.17991,0.1958 -0.41804,0.31221 -0.23283,0.11113 -0.51329,0.11113 z m -0.0847,-0.3175 q 0.22225,0 0.41275,-0.09 0.1905,-0.09 0.32809,-0.24871 0.13758,-0.15875 0.21166,-0.35454 0.0741,-0.20109 0.0741,-0.41275 0,-0.29104 -0.127,-0.54504 -0.12171,-0.2593 -0.34396,-0.41275 -0.21696,-0.15875 -0.51329,-0.15875 -0.21167,0 -0.39688,0.0952 -0.17992,0.0953 -0.32279,0.254 -0.13758,0.15345 -0.22754,0.33866 v 0.85725 q 0.0212,0.14288 0.11112,0.26988 0.09,0.12171 0.22225,0.21166 0.13759,0.09 0.28575,0.14288 0.14817,0.0529 0.28575,0.0529 z m 3.03478,-2.17488 q -0.35983,0.0106 -0.635,0.20108 -0.26988,0.1905 -0.381,0.52388 v 1.7145 h -0.35984 v -2.75696 h 0.33867 v 0.66146 q 0.14288,-0.29104 0.37571,-0.47096 0.23813,-0.17992 0.50271,-0.20108 0.0529,-0.005 0.09,-0.005 0.0423,0 0.0688,0.005 z m -0.0929,1.64571 q 0,-0.25929 0.14816,-0.4445 0.14817,-0.1905 0.40746,-0.29104 0.26459,-0.10584 0.60855,-0.10584 0.20108,0 0.41804,0.0317 0.21696,0.0318 0.38629,0.0953 v -0.23283 q 0,-0.34925 -0.20638,-0.55562 -0.20637,-0.20638 -0.5715,-0.20638 -0.22225,0 -0.43921,0.0847 -0.21166,0.0794 -0.4445,0.23812 l -0.13758,-0.254 q 0.26988,-0.18521 0.52917,-0.27516 0.25929,-0.0953 0.52917,-0.0953 0.508,0 0.80433,0.29104 0.29633,0.29104 0.29633,0.80433 v 1.27529 q 0,0.0741 0.0318,0.11113 0.0317,0.0318 0.10054,0.037 v 0.28575 q -0.0582,0.005 -0.10054,0.0106 -0.0423,0.005 -0.0635,0 -0.13229,-0.005 -0.20108,-0.0847 -0.0688,-0.0794 -0.0741,-0.16934 l -0.005,-0.20108 q -0.1852,0.23813 -0.48154,0.37042 -0.29633,0.127 -0.60325,0.127 -0.26458,0 -0.48154,-0.11113 -0.21167,-0.11641 -0.33338,-0.30691 -0.11641,-0.1958 -0.11641,-0.42863 z m 1.84679,0.21167 q 0.0582,-0.0741 0.09,-0.14288 0.0317,-0.0688 0.0317,-0.12171 v -0.40216 q -0.17992,-0.0688 -0.37571,-0.10584 -0.1905,-0.037 -0.38629,-0.037 -0.38629,0 -0.62442,0.15346 -0.23812,0.15346 -0.23812,0.41804 0,0.15346 0.0794,0.29104 0.0794,0.13229 0.23283,0.22225 0.15346,0.0847 0.35984,0.0847 0.25929,0 0.48154,-0.10054 0.22754,-0.10054 0.34925,-0.25929 z m 0.91811,0.58208 v -2.75696 h 0.35983 v 2.75696 z m 0,-3.33375 v -0.52917 h 0.35983 v 0.52917 z m 3.13002,3.33375 h -0.35983 v -1.53988 q 0,-0.48683 -0.14288,-0.70908 -0.14287,-0.22754 -0.44979,-0.22754 -0.21167,0 -0.41804,0.10583 -0.20638,0.10054 -0.36513,0.28046 -0.15346,0.17463 -0.22225,0.40217 v 1.68804 h -0.35983 v -2.75696 h 0.32808 v 0.62442 q 0.11113,-0.20109 0.29104,-0.34925 0.17992,-0.15346 0.40746,-0.23813 0.22754,-0.0847 0.47096,-0.0847 0.22754,0 0.38629,0.0847 0.15875,0.0847 0.254,0.24342 0.0952,0.15346 0.13759,0.37571 0.0423,0.21696 0.0423,0.48683 z m 2.35215,0.0529 q -0.33867,0 -0.62971,-0.11113 -0.29104,-0.11112 -0.50271,-0.33867 l 0.14817,-0.254 q 0.23283,0.21696 0.46566,0.31751 0.23813,0.0952 0.50271,0.0952 0.32279,0 0.52388,-0.127 0.20108,-0.1323 0.20108,-0.37571 0,-0.16405 -0.10054,-0.24871 -0.0953,-0.09 -0.28046,-0.14288 -0.17992,-0.0582 -0.43392,-0.12171 -0.28575,-0.0794 -0.48154,-0.16404 -0.1905,-0.09 -0.29104,-0.22225 -0.0952,-0.13758 -0.0952,-0.35454 0,-0.26987 0.13229,-0.4445 0.13758,-0.17992 0.37042,-0.26987 0.23812,-0.0953 0.52917,-0.0953 0.3175,0 0.56091,0.10054 0.24342,0.10054 0.39688,0.28046 l -0.17463,0.24341 q -0.14816,-0.16933 -0.35454,-0.24871 -0.20108,-0.0847 -0.44979,-0.0847 -0.16933,0 -0.32279,0.0476 -0.15346,0.0423 -0.254,0.14817 -0.0953,0.10054 -0.0953,0.28046 0,0.14816 0.0741,0.23283 0.0741,0.0794 0.22225,0.13758 0.14817,0.0529 0.36513,0.11642 0.3122,0.0847 0.54504,0.17463 0.23283,0.0847 0.35983,0.22225 0.127,0.13758 0.127,0.38629 0,0.38629 -0.29104,0.60325 -0.29104,0.21696 -0.76729,0.21696 z m 1.30969,-0.0529 v -2.75696 h 0.35983 v 2.75696 z m 0,-3.33375 v -0.52917 h 0.35983 v 0.52917 z m 4.91331,3.33375 h -0.35983 v -1.53988 q 0,-0.48154 -0.15346,-0.70908 -0.15346,-0.22754 -0.45508,-0.22754 -0.31221,0 -0.56092,0.22225 -0.24342,0.22225 -0.34396,0.5715 v 1.68275 h -0.35983 v -1.53988 q 0,-0.48683 -0.14817,-0.70908 -0.14817,-0.22754 -0.45508,-0.22754 -0.30692,0 -0.55563,0.21696 -0.24871,0.21696 -0.34925,0.5715 v 1.68804 h -0.35983 v -2.75696 h 0.32808 v 0.62442 q 0.17463,-0.32279 0.4445,-0.49742 0.27517,-0.17462 0.60854,-0.17462 0.34396,0 0.55563,0.19579 0.21167,0.19579 0.25929,0.51329 0.1905,-0.34925 0.45508,-0.52917 0.26988,-0.17991 0.60855,-0.17991 0.23283,0 0.39158,0.0847 0.16404,0.0847 0.25929,0.24342 0.10054,0.15346 0.14288,0.37571 0.0476,0.21696 0.0476,0.48683 z m 0.39424,-1.13771 v -1.61925 h 0.35983 v 1.55575 q 0,0.47096 0.15875,0.70379 0.16404,0.23284 0.48154,0.23284 0.21167,0 0.40746,-0.09 0.20108,-0.0952 0.35454,-0.26459 0.15346,-0.17462 0.23284,-0.40216 v -1.73567 h 0.35983 v 2.32304 q 0,0.0741 0.0317,0.11113 0.0317,0.0318 0.0953,0.037 v 0.28575 q -0.0635,0.005 -0.10054,0.005 -0.037,0.005 -0.0688,0.005 -0.10584,-0.0106 -0.18521,-0.0847 -0.0741,-0.0741 -0.0794,-0.17992 l -0.0106,-0.37042 q -0.17992,0.3175 -0.49213,0.49742 -0.30691,0.17992 -0.66675,0.17992 -0.43391,0 -0.65616,-0.30163 -0.22225,-0.30162 -0.22225,-0.889 z m 2.84427,-2.72521 h 0.35983 v 3.2385 q 0,0.20638 0.0741,0.26988 0.0741,0.0635 0.17991,0.0635 0.0953,0 0.1905,-0.0212 0.0952,-0.0212 0.16405,-0.0423 l 0.0635,0.29104 q -0.10055,0.0423 -0.24871,0.0688 -0.14288,0.0265 -0.24871,0.0265 -0.24342,0 -0.39158,-0.14287 -0.14288,-0.14288 -0.14288,-0.39159 z m 0.85989,3.06917 q 0,-0.25929 0.14817,-0.4445 0.14817,-0.1905 0.40746,-0.29104 0.26458,-0.10584 0.60854,-0.10584 0.20108,0 0.41804,0.0317 0.21696,0.0318 0.38629,0.0953 v -0.23283 q 0,-0.34925 -0.20637,-0.55562 -0.20638,-0.20638 -0.5715,-0.20638 -0.22225,0 -0.43921,0.0847 -0.21167,0.0794 -0.4445,0.23812 l -0.13758,-0.254 q 0.26987,-0.18521 0.52916,-0.27516 0.2593,-0.0953 0.52917,-0.0953 0.508,0 0.80433,0.29104 0.29634,0.29104 0.29634,0.80433 v 1.27529 q 0,0.0741 0.0317,0.11113 0.0317,0.0318 0.10054,0.037 v 0.28575 q -0.0582,0.005 -0.10054,0.0106 -0.0423,0.005 -0.0635,0 -0.13229,-0.005 -0.20109,-0.0847 -0.0688,-0.0794 -0.0741,-0.16934 l -0.005,-0.20108 q -0.18521,0.23813 -0.48154,0.37042 -0.29634,0.127 -0.60325,0.127 -0.26459,0 -0.48154,-0.11113 -0.21167,-0.11641 -0.33338,-0.30691 -0.11642,-0.1958 -0.11642,-0.42863 z m 1.8468,0.21167 q 0.0582,-0.0741 0.0899,-0.14288 0.0317,-0.0688 0.0317,-0.12171 v -0.40216 q -0.17991,-0.0688 -0.3757,-0.10584 -0.1905,-0.037 -0.3863,-0.037 -0.38629,0 -0.62441,0.15346 -0.23813,0.15346 -0.23813,0.41804 0,0.15346 0.0794,0.29104 0.0794,0.13229 0.23283,0.22225 0.15346,0.0847 0.35983,0.0847 0.2593,0 0.48155,-0.10054 0.22754,-0.10054 0.34925,-0.25929 z m 2.21986,0.44979 q -0.0423,0.0159 -0.1323,0.0582 -0.0899,0.0423 -0.21695,0.0741 -0.127,0.0318 -0.27517,0.0318 -0.15346,0 -0.29104,-0.0582 -0.1323,-0.0582 -0.21167,-0.17462 -0.0794,-0.12171 -0.0794,-0.29634 v -1.97379 h -0.381 v -0.28575 h 0.381 v -0.93133 h 0.35984 v 0.93133 h 0.635 v 0.28575 h -0.635 v 1.87325 q 0.0106,0.14817 0.10583,0.22225 0.10054,0.0741 0.22754,0.0741 0.14817,0 0.26988,-0.0476 0.12171,-0.0529 0.14817,-0.0741 z m 1.23683,0.18521 q -0.29633,0 -0.55033,-0.11113 -0.24871,-0.11641 -0.43392,-0.31221 -0.17992,-0.20108 -0.28046,-0.45508 -0.10054,-0.25929 -0.10054,-0.54504 0,-0.29634 0.10054,-0.55034 0.10054,-0.25929 0.28575,-0.45508 0.18521,-0.20108 0.43392,-0.31221 0.254,-0.11641 0.55033,-0.11641 0.29634,0 0.54504,0.11641 0.24871,0.11113 0.43392,0.31221 0.18521,0.19579 0.28575,0.45508 0.10054,0.254 0.10054,0.55034 0,0.28575 -0.10054,0.54504 -0.10054,0.254 -0.28575,0.45508 -0.17992,0.1958 -0.43392,0.31221 -0.2487,0.11113 -0.55033,0.11113 z m -1.00012,-1.41817 q 0,0.30692 0.13229,0.56092 0.13758,0.2487 0.36512,0.39687 0.22754,0.14288 0.50271,0.14288 0.27517,0 0.50271,-0.14817 0.22754,-0.14817 0.36512,-0.40217 0.13759,-0.25929 0.13759,-0.56091 0,-0.30692 -0.13759,-0.56092 -0.13758,-0.254 -0.36512,-0.40217 -0.22754,-0.14816 -0.50271,-0.14816 -0.27517,0 -0.50271,0.15345 -0.22225,0.15346 -0.35983,0.40746 -0.13758,0.24871 -0.13758,0.56092 z m 4.00843,-1.07421 q -0.35983,0.0106 -0.635,0.20108 -0.26987,0.1905 -0.381,0.52388 v 1.7145 h -0.35983 v -2.75696 h 0.33867 v 0.66146 q 0.14287,-0.29104 0.3757,-0.47096 0.23813,-0.17992 0.50271,-0.20108 0.0529,-0.005 0.09,-0.005 0.0423,0 0.0688,0.005 z"
       id="text23"
       style="font-size:5.29167px;line-height:1;font-family:Raleway;-inkscape-font-specification:Raleway;text-align:justify;letter-spacing:-0.341312px;word-spacing:0.0132292px;fill:#77767b;stroke-width:0.2;stroke-linecap:round;stroke-linejoin:round"
       aria-label="A multiscale brain simulator" /></g></svg>
